name analog
datacolumns 19
datarows 37
range 0.165 0.183
endheader
time	ground_force_vx	ground_force_vy	ground_force_vz	ground_force_px	ground_force_py	ground_force_pz	l_ground_force_vx	l_ground_force_vy	l_ground_force_vz	l_ground_force_px	l_ground_force_py	l_ground_force_pz	ground_torque_x	ground_torque_y	ground_torque_z	l_ground_torque_x	l_ground_torque_y	l_ground_torque_z
0.165	-0.0	-0.0	-0.0	10.375385284423828	34.32857894897461	-378.302734375	4.144317626953125	-37.72683334350586	-406.8531494140625	-0.0	-0.0	-0.0	-0.0	-0.0	-0.0	101315.109375	-36474.10546875	-4652.32080078125
0.1655	-0.0	-0.0	-0.0	10.079720497131348	34.39177703857422	-379.8023681640625	3.621767044067383	-37.97433471679688	-407.572509765625	-0.0	-0.0	-0.0	-0.0	-0.0	-0.0	101297.0078125	-36023.5703125	-4841.9658203125
0.166	-0.0	-0.0	-0.0	10.057650566101074	34.966346740722656	-381.8170166015625	3.1276426315307617	-37.9398307800293	-407.11077880859375	-0.0	-0.0	-0.0	-0.0	-0.0	-0.0	101301.453125	-35517.4609375	-4918.7138671875
0.1665	-0.0	-0.0	-0.0	10.357065200805664	34.70597076416016	-382.8584289550781	2.60451602935791	-38.266937255859375	-406.89691162109375	-0.0	-0.0	-0.0	-0.0	-0.0	-0.0	101263.03125	-35169.51953125	-5194.4814453125
0.167	-0.0	-0.0	-0.0	10.242179870605469	35.003257751464844	-383.3544921875	2.123411178588867	-38.38127136230469	-406.5432434082031	-0.0	-0.0	-0.0	-0.0	-0.0	-0.0	101045.2421875	-34564.44140625	-5405.248046875
0.1675	-0.0	-0.0	-0.0	9.475769996643066	34.8318977355957	-383.8844604492188	1.6426305770874023	-38.28892517089844	-407.2362976074219	-0.0	-0.0	-0.0	-0.0	-0.0	-0.0	100860.109375	-34207.51171875	-5517.3017578125
0.168	-0.0	-0.0	-0.0	8.848005294799805	34.693809509277344	-385.1005859375	1.4411046504974363	-38.74076461791992	-407.4599609375	-0.0	-0.0	-0.0	-0.0	-0.0	-0.0	100987.5	-33582.234375	-5800.56982421875
0.1685	-0.0	-0.0	-0.0	8.172554016113281	35.17285919189453	-387.4168701171875	0.6420232057571411	-38.80762481689453	-406.748779296875	-0.0	-0.0	-0.0	-0.0	-0.0	-0.0	100865.21875	-33264.40625	-5885.7958984375
0.169	-0.0	-0.0	-0.0	7.447171688079834	35.45446014404297	-388.8857421875	0.4631862044334411	-38.76441955566406	-406.93646240234375	-0.0	-0.0	-0.0	-0.0	-0.0	-0.0	100760.21875	-32690.65625	-6075.7705078125
0.1695	-0.0	-0.0	-0.0	6.783593654632568	35.96033477783203	-389.8674926757813	-0.0587676391005516	-38.85896301269531	-406.45599365234375	-0.0	-0.0	-0.0	-0.0	-0.0	-0.0	100559.1328125	-32183.466796875	-6260.75732421875
0.17	-0.0	-0.0	-0.0	5.8847479820251465	36.315338134765625	-391.8321533203125	-0.5896835327148438	-38.97063827514648	-406.4124755859375	-0.0	-0.0	-0.0	-0.0	-0.0	-0.0	100487.1796875	-31807.7578125	-6523.31884765625
0.1705	-0.0	-0.0	-0.0	5.418190956115723	36.82791519165039	-391.5572509765625	-0.966039538383484	-39.32473373413086	-406.2725830078125	-0.0	-0.0	-0.0	-0.0	-0.0	-0.0	100410.234375	-31244.478515625	-6739.41259765625
0.171	-0.0	-0.0	-0.0	4.970951080322266	37.44932556152344	-393.7749328613281	-1.4732317924499512	-39.54352569580078	-406.1604309082031	-0.0	-0.0	-0.0	-0.0	-0.0	-0.0	100364.3359375	-30680.388671875	-6977.2548828125
0.1715	-0.0	-0.0	-0.0	4.7478928565979	37.97430038452149	-394.37738037109375	-1.8551714420318604	-39.64393615722656	-406.85888671875	-0.0	-0.0	-0.0	-0.0	-0.0	-0.0	100218.015625	-30361.84765625	-7158.04833984375
0.17200000000000001	-0.0	-0.0	-0.0	4.033851623535156	37.91994857788086	-395.874755859375	-1.9910361766815183	-39.74475860595703	-408.0422058105469	-0.0	-0.0	-0.0	-0.0	-0.0	-0.0	99936.421875	-29855.3046875	-7315.40966796875
0.17250000000000001	-0.0	-0.0	-0.0	3.808497667312622	38.83585357666016	-396.4156494140625	-2.3188343048095703	-39.89937973022461	-406.373779296875	-0.0	-0.0	-0.0	-0.0	-0.0	-0.0	100019.078125	-29421.357421875	-7470.6484375
0.17300000000000001	-0.0	-0.0	-0.0	3.2215096950531006	38.87567138671875	-397.6412048339844	-2.7302255630493164	-40.00485610961914	-407.2471923828125	-0.0	-0.0	-0.0	-0.0	-0.0	-0.0	100075.140625	-29139.970703125	-7593.0263671875
0.17350000000000002	-0.0	-0.0	-0.0	2.36720871925354	39.12295150756836	-397.9254760742188	-3.0229811668396	-40.46357727050781	-407.2462768554688	-0.0	-0.0	-0.0	-0.0	-0.0	-0.0	100133.703125	-28823.6796875	-7786.76220703125
0.17400000000000002	-0.0	-0.0	-0.0	1.655219793319702	39.2968635559082	-398.9787292480469	-3.193588256835937	-40.53022003173828	-408.2023010253906	-0.0	-0.0	-0.0	-0.0	-0.0	-0.0	99972.78125	-28396.568359375	-7790.8818359375
0.17450000000000002	-0.0	-0.0	-0.0	0.9400451183319092	39.68437194824219	-400.7916259765625	-3.4106693267822266	-40.957481384277344	-407.069580078125	-0.0	-0.0	-0.0	-0.0	-0.0	-0.0	100087.6640625	-28178.974609375	-7949.732421875
0.17500000000000002	-0.0	-0.0	-0.0	0.654895007610321	39.8354721069336	-402.75921630859375	-3.783971309661865	-40.81517791748047	-407.9654541015625	-0.0	-0.0	-0.0	-0.0	-0.0	-0.0	100181.8359375	-27879.7734375	-8108.234375
0.17550000000000002	-0.0	-0.0	-0.0	-0.7075778841972351	39.866737365722656	-402.3512573242188	-4.120201110839844	-40.79870223999024	-408.4469299316406	-0.0	-0.0	-0.0	-0.0	-0.0	-0.0	100294.40625	-27810.525390625	-8192.3955078125
0.176	-0.0	-0.0	-0.0	-1.1779968738555908	39.88129425048828	-404.6719055175781	-4.249159812927246	-40.83540344238281	-409.0840148925781	-0.0	-0.0	-0.0	-0.0	-0.0	-0.0	100577.7734375	-27419.701171875	-8279.3232421875
0.1765	-0.0	-0.0	-0.0	-1.842390537261963	40.46417236328125	-404.0300903320313	-4.512063503265381	-40.66879653930664	-409.882080078125	-0.0	-0.0	-0.0	-0.0	-0.0	-0.0	100394.1796875	-27215.107421875	-8455.193359375
0.177	-0.0	-0.0	-0.0	-2.4734411239624023	40.39834976196289	-405.2301025390625	-4.378119468688965	-40.86185073852539	-410.1570434570313	-0.0	-0.0	-0.0	-0.0	-0.0	-0.0	100503.90625	-26977.05078125	-8513.693359375
0.1775	-0.0	-0.0	-0.0	-2.733558654785156	40.51287841796875	-405.3967895507813	-4.615714073181152	-40.93286895751953	-410.24456787109375	-0.0	-0.0	-0.0	-0.0	-0.0	-0.0	100780.21875	-26687.890625	-8566.0361328125
0.178	-0.0	-0.0	-0.0	-2.641716957092285	40.7814826965332	-406.57861328125	-4.2982330322265625	-40.796180725097656	-410.76019287109375	-0.0	-0.0	-0.0	-0.0	-0.0	-0.0	100728.1171875	-26596.14453125	-8605.412109375
0.1785	-0.0	-0.0	-0.0	-2.648675441741944	40.70820617675781	-405.9719848632813	-4.238039016723633	-41.19866561889648	-410.6746826171875	-0.0	-0.0	-0.0	-0.0	-0.0	-0.0	100688.1796875	-26438.42578125	-8519.1904296875
0.179	-0.0	-0.0	-0.0	-2.92448091506958	41.05278396606445	-406.2532043457031	-4.012096881866455	-41.077781677246094	-411.4913330078125	-0.0	-0.0	-0.0	-0.0	-0.0	-0.0	100692.5234375	-26212.9140625	-8537.73828125
0.1795	-0.0	-0.0	-0.0	-3.2421538829803467	40.77106475830078	-405.8602294921875	-3.877087593078613	-40.72835159301758	-412.45123291015625	-0.0	-0.0	-0.0	-0.0	-0.0	-0.0	100819.453125	-26202.537109375	-8485.5634765625
0.18	-0.0	-0.0	-0.0	-3.5278608798980717	40.90277099609375	-406.6706848144531	-3.572974920272827	-40.79673385620117	-412.126708984375	-0.0	-0.0	-0.0	-0.0	-0.0	-0.0	100944.609375	-25984.728515625	-8421.333984375
0.1805	-0.0	-0.0	-0.0	-3.679868698120117	40.479522705078125	-407.9876708984375	-3.4843955039978027	-40.347049713134766	-412.6884765625	-0.0	-0.0	-0.0	-0.0	-0.0	-0.0	101190.0859375	-25891.26171875	-8557.962890625
0.181	-0.0	-0.0	-0.0	-3.7185933589935294	40.226539611816406	-410.1400146484375	-3.3305397033691406	-40.47148132324219	-413.04638671875	-0.0	-0.0	-0.0	-0.0	-0.0	-0.0	101271.8671875	-25894.44921875	-8508.8017578125
0.1815	-0.0	-0.0	-0.0	-4.1346049308776855	40.05237579345703	-410.21966552734375	-3.5219101905822754	-40.22289276123047	-413.2857055664063	-0.0	-0.0	-0.0	-0.0	-0.0	-0.0	101266.171875	-25563.814453125	-8449.1884765625
0.182	-0.0	-0.0	-0.0	-4.4605255126953125	39.63978576660156	-410.3030090332031	-3.4039809703826904	-40.26713562011719	-414.2236022949219	-0.0	-0.0	-0.0	-0.0	-0.0	-0.0	101673.328125	-25402.86328125	-8494.02734375
0.1825	-0.0	-0.0	-0.0	-4.798244953155518	39.4001579284668	-413.29095458984375	-3.31563663482666	-40.023345947265625	-415.9668884277344	-0.0	-0.0	-0.0	-0.0	-0.0	-0.0	101809.90625	-25422.40625	-8499.544921875
0.183	-0.0	-0.0	-0.0	-4.728060722351074	39.27114486694336	-414.390869140625	-3.2009308338165283	-40.00611877441406	-416.09417724609375	-0.0	-0.0	-0.0	-0.0	-0.0	-0.0	102000.1953125	-25392.025390625	-8520.4619140625
